<?xml version="1.0" standalone="no"?>
<!DOCTYPE svg PUBLIC "-//W3C//DTD SVG 20010904//EN"
 "http://www.w3.org/TR/2001/REC-SVG-20010904/DTD/svg10.dtd">
<svg version="1.0" xmlns="http://www.w3.org/2000/svg"
 width="1280.000000pt" height="1134.000000pt" viewBox="0 0 1280.000000 1134.000000"
 preserveAspectRatio="xMidYMid meet">
<g transform="translate(0.000000,1134.000000) scale(0.100000,-0.100000)"
fill="#000000" stroke="none">
<path d="M9985 11330 c-33 -4 -125 -13 -205 -20 -1370 -111 -3719 -816 -6730
-2020 -758 -303 -1615 -662 -2185 -916 -71 -31 -173 -74 -226 -94 -321 -122
-523 -406 -598 -840 -43 -249 -42 -199 -39 -2744 l3 -2448 1790 -1084 c1245
-753 1802 -1096 1828 -1124 l38 -40 84 0 c79 0 85 2 85 20 0 13 12 26 33 36
17 8 2035 846 4482 1862 l4450 1847 3 2415 c2 1758 0 2438 -8 2500 -31 229
-55 367 -87 490 -188 730 -656 1359 -1354 1821 -343 227 -508 288 -890 330
-132 14 -402 19 -474 9z m552 -305 c217 -30 346 -79 558 -210 522 -323 906
-732 1145 -1220 97 -198 142 -317 190 -510 76 -301 71 -95 70 -2749 0 -1309
-2 -2382 -5 -2384 -13 -13 -8648 -3591 -8656 -3586 -5 3 -9 1007 -9 2479 0
1622 -4 2508 -10 2576 -104 1042 -736 1956 -1760 2544 -218 125 -410 215 -590
275 -46 16 -86 33 -88 38 -3 10 51 35 478 215 2452 1036 4687 1830 6265 2226
791 198 1309 287 1895 325 101 7 414 -5 517 -19z m-9348 -2995 c112 -24 286
-81 286 -95 0 -16 -550 -19 -562 -3 -16 20 -22 105 -9 118 15 16 161 5 285
-20z"/>
<path d="M6325 9080 c-858 -259 -1584 -477 -1612 -485 l-53 -16 0 -2480 0
-2480 26 -52 c57 -112 157 -244 218 -289 37 -26 45 -28 140 -28 l102 0 46 48
c55 57 98 132 138 241 l30 82 0 1493 c0 1183 3 1496 13 1503 6 5 579 202 1272
438 693 236 1263 433 1267 439 4 6 7 470 5 1031 -2 898 -4 1020 -17 1022 -8 1
-717 -209 -1575 -467z"/>
</g>
</svg>
